<svg width="65" height="65" viewBox="0 0 65 65" fill="none" xmlns="http://www.w3.org/2000/svg">
<rect width="65" height="65" fill="white"/>
<path d="M37.9167 54.1667C37.9167 55.6033 37.346 56.981 36.3302 57.9968C35.3143 59.0126 33.9366 59.5833 32.5 59.5833H29.7917C28.3551 59.5833 26.9773 59.0126 25.9615 57.9968C24.9457 56.981 24.375 55.6033 24.375 54.1667H27.0833C27.0833 54.885 27.3687 55.5738 27.8766 56.0817C28.3845 56.5897 29.0734 56.875 29.7917 56.875H32.5C33.2183 56.875 33.9072 56.5897 34.4151 56.0817C34.923 55.5738 35.2083 54.885 35.2083 54.1667H37.9167ZM40.625 46.0417C40.625 47.4783 40.0543 48.856 39.0385 49.8718C38.0227 50.8876 36.6449 51.4583 35.2083 51.4583H27.0833C25.6467 51.4583 24.269 50.8876 23.2532 49.8718C22.2373 48.856 21.6667 47.4783 21.6667 46.0417V40.625C16.7917 37.4292 13.5417 31.9583 13.5417 25.7292C13.5417 21.0603 15.3964 16.5826 18.6978 13.2811C21.9992 9.97972 26.4769 8.125 31.1458 8.125C35.8147 8.125 40.2924 9.97972 43.5938 13.2811C46.8953 16.5826 48.75 21.0603 48.75 25.7292C48.75 31.9583 45.5 37.4292 40.625 40.625V46.0417ZM24.375 46.0417C24.375 46.76 24.6603 47.4488 25.1682 47.9567C25.6762 48.4647 26.365 48.75 27.0833 48.75H35.2083C35.9266 48.75 36.6155 48.4647 37.1234 47.9567C37.6313 47.4488 37.9167 46.76 37.9167 46.0417V39C42.7375 36.5625 46.0417 31.525 46.0417 25.7292C46.0417 21.7785 44.4723 17.9897 41.6788 15.1962C38.8853 12.4027 35.0964 10.8333 31.1458 10.8333C27.1952 10.8333 23.4064 12.4027 20.6129 15.1962C17.8194 17.9897 16.25 21.7785 16.25 25.7292C16.25 31.525 19.5542 36.5625 24.375 39V46.0417Z" fill="black"/>
</svg>
