<svg width="65" height="65" viewBox="0 0 65 65" fill="none" xmlns="http://www.w3.org/2000/svg">
<path d="M12.5017 51.4583C11.254 51.4583 10.2131 51.0412 9.37896 50.207C8.54479 49.3729 8.12681 48.3311 8.125 47.0816V17.9183C8.125 16.6707 8.54299 15.6298 9.37896 14.7956C10.2149 13.9614 11.2549 13.5434 12.499 13.5416H52.501C53.7469 13.5416 54.7869 13.9596 55.621 14.7956C56.4552 15.6316 56.8732 16.6725 56.875 17.9183V47.0843C56.875 48.3302 56.457 49.3711 55.621 50.207C54.7851 51.043 53.7451 51.4601 52.501 51.4583H12.5017ZM12.5017 48.75H52.501C52.9163 48.75 53.2982 48.5766 53.6467 48.23C53.9951 47.8833 54.1685 47.5005 54.1667 47.0816V17.9183C54.1667 17.5012 53.9933 17.1184 53.6467 16.77C53.3 16.4215 52.9181 16.2482 52.501 16.25H12.499C12.0837 16.25 11.7018 16.4233 11.3533 16.77C11.0049 17.1166 10.8315 17.4994 10.8333 17.9183V47.0843C10.8333 47.4996 11.0067 47.8815 11.3533 48.23C11.7 48.5784 12.0819 48.7518 12.499 48.75M28.4375 39.2708H18.9583C18.5737 39.2708 18.2515 39.3999 17.9915 39.6581C17.7315 39.9163 17.6024 40.2386 17.6042 40.625C17.606 41.0113 17.7351 41.3336 17.9915 41.5918C18.2478 41.85 18.5701 41.9791 18.9583 41.9791H23.0208V43.3333C23.0208 43.7197 23.1499 44.042 23.4081 44.3002C23.6663 44.5584 23.9886 44.6875 24.375 44.6875C24.7614 44.6875 25.0837 44.5584 25.3419 44.3002C25.6001 44.042 25.7292 43.7197 25.7292 43.3333V41.9791H29.0604C29.6562 41.9791 30.1528 41.7805 30.55 41.3833C30.9472 40.9861 31.1458 40.4895 31.1458 39.8937V33.2312C31.1458 32.6354 30.9472 32.1388 30.55 31.7416C30.1528 31.3444 29.6562 31.1458 29.0604 31.1458H20.3125V25.7291H29.7917C30.1781 25.7291 30.5003 25.6 30.7585 25.3418C31.0167 25.0836 31.1458 24.7613 31.1458 24.375C31.1458 23.9886 31.0167 23.6663 30.7585 23.4081C30.5003 23.1499 30.1781 23.0208 29.7917 23.0208H25.7292V21.6666C25.7292 21.282 25.6001 20.9598 25.3419 20.6998C25.0837 20.4398 24.7614 20.3107 24.375 20.3125C23.9886 20.3143 23.6663 20.4434 23.4081 20.6998C23.1499 20.9561 23.0208 21.2784 23.0208 21.6666V23.0208H19.6896C19.0938 23.0208 18.5972 23.2194 18.2 23.6166C17.8028 24.0138 17.6042 24.5104 17.6042 25.1062V31.7687C17.6042 32.3645 17.8028 32.8611 18.2 33.2583C18.5972 33.6555 19.0938 33.8541 19.6896 33.8541H28.4375V39.2708ZM43.7044 42.9108L46.559 40.0589C46.7485 39.8675 46.7955 39.6626 46.6998 39.4441C46.6059 39.2238 46.4344 39.1137 46.1852 39.1137H40.4787C40.2332 39.1137 40.0617 39.2238 39.9642 39.4441C39.8703 39.6608 39.919 39.8657 40.1104 40.0589L42.9623 42.9108C43.0634 43.0119 43.1871 43.0625 43.3333 43.0625C43.4796 43.0625 43.6033 43.0119 43.7044 42.9108ZM40.4815 26.5633H46.1879C46.4353 26.5633 46.6068 26.4541 46.7025 26.2356C46.7982 26.0171 46.7494 25.8122 46.5563 25.6208L43.7017 22.7662C43.6042 22.6651 43.4814 22.6145 43.3333 22.6145C43.1853 22.6145 43.0625 22.6651 42.965 22.7662L40.1077 25.6181C39.9181 25.8095 39.8712 26.0144 39.9669 26.2329C40.0626 26.4513 40.2341 26.5615 40.4815 26.5633Z" fill="black"/>
</svg>
