<svg width="65" height="65" viewBox="0 0 65 65" fill="none" xmlns="http://www.w3.org/2000/svg">
<path d="M32.5 12.1875C30.7043 12.1875 28.9821 12.9008 27.7123 14.1706C26.4425 15.4404 25.7292 17.1626 25.7292 18.9583C25.7292 20.754 26.4425 22.4762 27.7123 23.746C28.9821 25.0158 30.7043 25.7291 32.5 25.7291C34.2957 25.7291 36.0179 25.0158 37.2877 23.746C38.5575 22.4762 39.2708 20.754 39.2708 18.9583C39.2708 17.1626 38.5575 15.4404 37.2877 14.1706C36.0179 12.9008 34.2957 12.1875 32.5 12.1875ZM23.0208 18.9583C23.0208 17.7135 23.266 16.4808 23.7424 15.3308C24.2188 14.1807 24.917 13.1357 25.7972 12.2555C26.6774 11.3753 27.7224 10.6771 28.8725 10.2007C30.0225 9.72431 31.2552 9.47913 32.5 9.47913C33.7448 9.47913 34.9775 9.72431 36.1275 10.2007C37.2776 10.6771 38.3226 11.3753 39.2028 12.2555C40.083 13.1357 40.7812 14.1807 41.2576 15.3308C41.734 16.4808 41.9792 17.7135 41.9792 18.9583C41.9792 21.4723 40.9805 23.8834 39.2028 25.6611C37.4251 27.4388 35.014 28.4375 32.5 28.4375C29.986 28.4375 27.5749 27.4388 25.7972 25.6611C24.0195 23.8834 23.0208 21.4723 23.0208 18.9583ZM25.3771 33.9787C24.7451 34.1412 24.1195 34.3236 23.5002 34.5258L20.9029 35.3789C19.842 35.7244 18.8838 36.3287 18.1149 37.1372C17.3461 37.9458 16.7908 38.9332 16.4992 40.0102L15.4185 47.8102C15.1748 49.5625 16.1037 51.006 17.5744 51.3581C20.4642 52.0487 25.2958 52.8125 32.4973 52.8125C39.7015 52.8125 44.5358 52.0487 47.4256 51.3581C48.8962 51.006 49.8225 49.5625 49.5815 47.8102L48.4981 40.0102C48.2065 38.9332 47.6512 37.9458 46.8823 37.1372C46.1135 36.3287 45.1553 35.7244 44.0944 35.3789L41.4971 34.5258C40.8778 34.3218 40.2531 34.1394 39.6229 33.9787C39.1337 34.3626 38.6158 34.7085 38.0737 35.0133C36.3768 35.9881 34.457 36.5087 32.5 36.5245C30.1708 36.5245 28.2479 35.7581 26.9262 35.0133C26.3833 34.7086 25.8672 34.3627 25.3771 33.9787ZM26.1462 31.0131L26.6717 31.5304L26.6852 31.5439L26.7502 31.6035C26.8134 31.6613 26.9136 31.7443 27.0508 31.8527C27.3217 32.0693 27.7306 32.3618 28.2533 32.6543C29.3015 33.2448 30.764 33.8162 32.4973 33.8162C34.2306 33.8162 35.6931 33.2475 36.7412 32.6543C37.2741 32.3533 37.7766 32.0014 38.2417 31.6035L38.3094 31.5412L38.3202 31.5331L38.8456 31.0131L39.5715 31.181C40.5031 31.3941 41.4258 31.6514 42.3394 31.9529L44.9394 32.806C46.4464 33.2953 47.8053 34.1578 48.8896 35.3132C49.974 36.4685 50.7486 37.8793 51.1415 39.4143L51.1604 39.4875L52.26 47.4391C52.6581 50.31 51.1225 53.262 48.0512 53.9933C44.9367 54.7354 39.891 55.5208 32.4973 55.5208C25.1035 55.5208 20.0579 54.7354 16.9433 53.9933C13.8721 53.262 12.3365 50.31 12.7319 47.4391L13.8342 39.4875L13.8531 39.4143C14.246 37.8793 15.0206 36.4685 16.105 35.3132C17.1893 34.1578 18.5482 33.2953 20.0552 32.806L22.6552 31.9529C23.5688 31.6532 24.4915 31.3959 25.4231 31.181L26.1462 31.0131Z" fill="black"/>
</svg>
